<svg width="41" height="41" viewBox="0 0 41 41" fill="none" xmlns="http://www.w3.org/2000/svg">
<path fill-rule="evenodd" clip-rule="evenodd" d="M20.3229 0C31.5521 0 40.651 9.09896 40.651 20.3229C40.651 31.5521 31.5521 40.651 20.3229 40.651C9.09896 40.651 0 31.5521 0 20.3229C0 9.09896 9.09896 0 20.3229 0ZM2.0625 20.3542C17.125 18.5729 18.5677 17.125 20.3542 2.0625C22.1354 17.125 23.5833 18.5729 38.6458 20.3542C23.5833 22.1354 22.1354 23.5833 20.3542 38.6458C18.5729 23.6146 17.1302 22.1406 2.15625 20.3646C2.14062 20.362 2.125 20.3607 2.10938 20.3594C2.09375 20.3581 2.07812 20.3568 2.0625 20.3542Z" fill="#3E97FF"/>
</svg>
